<?xml version="1.0" encoding="UTF-8" standalone="no"?>
<svg
   xmlns:dc="http://purl.org/dc/elements/1.1/"
   xmlns:cc="http://creativecommons.org/ns#"
   xmlns:rdf="http://www.w3.org/1999/02/22-rdf-syntax-ns#"
   xmlns:svg="http://www.w3.org/2000/svg"
   xmlns="http://www.w3.org/2000/svg"
   xmlns:sodipodi="http://sodipodi.sourceforge.net/DTD/sodipodi-0.dtd"
   xmlns:inkscape="http://www.inkscape.org/namespaces/inkscape"
   width="14"
   height="8"
   viewBox="0 0 14 8"
   version="1.1"
   id="svg4"
   sodipodi:docname="arrow-up.svg"
   inkscape:version="0.92.2 5c3e80d, 2017-08-06">
  <metadata
     id="metadata10">
    <rdf:RDF>
      <cc:Work
         rdf:about="">
        <dc:format>image/svg+xml</dc:format>
        <dc:type
           rdf:resource="http://purl.org/dc/dcmitype/StillImage" />
        <dc:title></dc:title>
      </cc:Work>
    </rdf:RDF>
  </metadata>
  <defs
     id="defs8" />
  <sodipodi:namedview
     pagecolor="#ffffff"
     bordercolor="#666666"
     borderopacity="1"
     objecttolerance="10"
     gridtolerance="10"
     guidetolerance="10"
     inkscape:pageopacity="0"
     inkscape:pageshadow="2"
     inkscape:window-width="2048"
     inkscape:window-height="1078"
     id="namedview6"
     showgrid="false"
     inkscape:zoom="20.857143"
     inkscape:cx="7"
     inkscape:cy="4"
     inkscape:window-x="0"
     inkscape:window-y="45"
     inkscape:window-maximized="1"
     inkscape:current-layer="svg4" />
  <path
     d="m 13.667,7.0066425 -0.673,0.604 a 1.224,1.224 0 0 1 -0.818,0.298 c -0.318,0 -0.587,-0.1 -0.809,-0.298 l -4.367,-3.914 -4.367,3.914 a 1.169,1.169 0 0 1 -0.809,0.298 c -0.311,0 -0.584,-0.1 -0.818,-0.298 l -0.665,-0.604 A 0.951,0.951 0 0 1 0,6.2736425 c 0,-0.29 0.114,-0.532 0.341,-0.725 l 5.85,-5.243 C 6.407,0.1016425 6.676,-3.5749929e-4 7,-3.5749929e-4 c 0.318,0 0.59,0.10199999929 0.818,0.30599999929 l 5.85,5.243 a 0.938,0.938 0 0 1 0.332,0.725 c 0,0.28 -0.11,0.523 -0.333,0.733 z"
     id="path2"
     inkscape:connector-curvature="0"
     style="fill:#263b3f;fill-rule:nonzero" />
</svg>
