<?xml version="1.0" encoding="UTF-8" standalone="no"?>
<!DOCTYPE svg PUBLIC "-//W3C//DTD SVG 1.1//EN" "http://www.w3.org/Graphics/SVG/1.1/DTD/svg11.dtd">
<svg version="1.1" xmlns="http://www.w3.org/2000/svg" xmlns:xlink="http://www.w3.org/1999/xlink" preserveAspectRatio="xMidYMid meet" viewBox="0 0 640 640" width="30" height="30"><defs><path d="M546.21 24.95C557.26 24.95 566.21 33.91 566.21 44.95C566.21 162.12 566.21 493.62 566.21 610.78C566.21 621.83 557.26 630.78 546.21 630.78C446.62 630.78 167.84 630.78 68.25 630.78C57.2 630.78 48.25 621.83 48.25 610.78C48.25 493.62 48.25 162.12 48.25 44.95C48.25 33.91 57.2 24.95 68.25 24.95C167.84 24.95 446.62 24.95 546.21 24.95Z" id="f17EaVnZF"></path><path d="" id="b1wuB5M9oX"></path><path d="M481.65 130.18L114.65 130.18" id="a2HBBSPGb"></path><path d="M404.65 261.75L114.65 261.75" id="a4q4x6a7nw"></path><path d="M481.65 394.18L114.65 394.18" id="a1gIg1bxy"></path><path d="M404.65 526.58L114.65 526.58" id="e3X5mCQ68"></path></defs><g><g><g><use xlink:href="#f17EaVnZF" opacity="1" fill="#ffffff" fill-opacity="0"></use><g><use xlink:href="#f17EaVnZF" opacity="1" fill-opacity="0" stroke="#000000" stroke-width="23" stroke-opacity="1"></use></g></g><g><g><use xlink:href="#b1wuB5M9oX" opacity="1" fill-opacity="0" stroke="#2d8d99" stroke-width="1" stroke-opacity="1"></use></g></g><g><use xlink:href="#a2HBBSPGb" opacity="1" fill="#000000" fill-opacity="1"></use><g><use xlink:href="#a2HBBSPGb" opacity="1" fill-opacity="0" stroke="#000000" stroke-width="30" stroke-opacity="1"></use></g></g><g><use xlink:href="#a4q4x6a7nw" opacity="1" fill="#000000" fill-opacity="1"></use><g><use xlink:href="#a4q4x6a7nw" opacity="1" fill-opacity="0" stroke="#000000" stroke-width="30" stroke-opacity="1"></use></g></g><g><use xlink:href="#a1gIg1bxy" opacity="1" fill="#000000" fill-opacity="1"></use><g><use xlink:href="#a1gIg1bxy" opacity="1" fill-opacity="0" stroke="#000000" stroke-width="30" stroke-opacity="1"></use></g></g><g><use xlink:href="#e3X5mCQ68" opacity="1" fill="#000000" fill-opacity="1"></use><g><use xlink:href="#e3X5mCQ68" opacity="1" fill-opacity="0" stroke="#000000" stroke-width="30" stroke-opacity="1"></use></g></g></g></g></svg>